<svg width="192" height="192" viewBox="-25 -10 450 420">
  {/* input */}
  <circle cx="0" cy="50" r="20" fill="#2563eb" stroke-width="10" />
  <circle cx="0" cy="200" r="20" fill="#2563eb" stroke-width="10" />
  <circle cx="0" cy="350" r="20" fill="#2563eb" stroke-width="10" />
  
  {/* input to hidden */}
  <line x1="20" y1="50" x2="180" y2="20" stroke="#168BE0" stroke-width="5" />
  <line x1="20" y1="50" x2="180" y2="140" stroke="#168BE0" stroke-width="5" />
  <line x1="20" y1="50" x2="180" y2="260" stroke="#168BE0" stroke-width="5" />
  <line x1="20" y1="50" x2="180" y2="380" stroke="#168BE0" stroke-width="5" />

  <line x1="20" y1="200" x2="180" y2="20" stroke="#168BE0" stroke-width="5" />
  <line x1="20" y1="200" x2="180" y2="140" stroke="#168BE0" stroke-width="5" />
  <line x1="20" y1="200" x2="180" y2="260" stroke="#168BE0" stroke-width="5" />
  <line x1="20" y1="200" x2="180" y2="380" stroke="#168BE0" stroke-width="5" />

  <line x1="20" y1="350" x2="180" y2="20" stroke="#168BE0" stroke-width="5" />
  <line x1="20" y1="350" x2="180" y2="140" stroke="#168BE0" stroke-width="5" />
  <line x1="20" y1="350" x2="180" y2="260" stroke="#168BE0" stroke-width="5" />
  <line x1="20" y1="350" x2="180" y2="380" stroke="#168BE0" stroke-width="5" />

  {/* hidden */}
  <circle cx="200" cy="20" r="20" fill="#06b6d4" stroke-width="10" />
  <circle cx="200" cy="140" r="20" fill="#06b6d4" stroke-width="10" />
  <circle cx="200" cy="260" r="20" fill="#06b6d4" stroke-width="10" />
  <circle cx="200" cy="380" r="20" fill="#06b6d4" stroke-width="10" />
  
  {/* hidden to output */}
  <line x1="220" y1="20" x2="380" y2="100" stroke="#33BE90" stroke-width="5" />
  <line x1="220" y1="20" x2="380" y2="300" stroke="#33BE90" stroke-width="5" />

  <line x1="220" y1="140" x2="380" y2="100" stroke="#33BE90" stroke-width="5" />
  <line x1="220" y1="140" x2="380" y2="300" stroke="#33BE90" stroke-width="5" />

  <line x1="220" y1="260" x2="380" y2="100" stroke="#33BE90" stroke-width="5" />
  <line x1="220" y1="260" x2="380" y2="300" stroke="#33BE90" stroke-width="5" />

  <line x1="220" y1="380" x2="380" y2="100" stroke="#33BE90" stroke-width="5" />
  <line x1="220" y1="380" x2="380" y2="300" stroke="#33BE90" stroke-width="5" />

  {/* output */}
  <circle cx="400" cy="100" r="20" fill="#84cc16" stroke-width="10" />
  <circle cx="400" cy="300" r="20" fill="#84cc16" stroke-width="10" />
</svg>